<svg xmlns="http://www.w3.org/2000/svg" version="1.1"  viewBox="0 0 800 800"><defs><linearGradient x1="50%" y1="0%" x2="50%" y2="100%" id="ffflurry-grad" gradientTransform="rotate(270)"><stop stop-color="#181818" stop-opacity="1" offset="0%"></stop><stop stop-color="hsl(265, 55%, 30%)" stop-opacity="1" offset="45%"></stop><stop stop-color="hsl(265, 55%, 60%)" stop-opacity="1" offset="100%"></stop></linearGradient></defs><rect width="100%" height="100%" fill="#181818"></rect><g fill="url(#ffflurry-grad)"><rect width="378" height="3" x="-135" y="699.5" rx="1.5" transform="rotate(45, 54, 701)" opacity="0.71"></rect><rect width="494" height="3" x="508" y="592.5" rx="1.5" transform="rotate(45, 755, 594)" opacity="0.66"></rect><rect width="193" height="3" x="620.5" y="66.5" rx="1.5" transform="rotate(45, 717, 68)" opacity="0.77"></rect><rect width="74" height="3" x="572" y="310.5" rx="1.5" transform="rotate(45, 609, 312)" opacity="0.65"></rect><rect width="225" height="3" x="602.5" y="166.5" rx="1.5" transform="rotate(45, 715, 168)" opacity="0.28"></rect><rect width="500" height="3" x="313" y="748.5" rx="1.5" transform="rotate(45, 563, 750)" opacity="0.85"></rect><rect width="281" height="3" x="44.5" y="111.5" rx="1.5" transform="rotate(45, 185, 113)" opacity="0.46"></rect><rect width="350" height="3" x="39" y="462.5" rx="1.5" transform="rotate(45, 214, 464)" opacity="0.30"></rect><rect width="375" height="3" x="-50.5" y="758.5" rx="1.5" transform="rotate(45, 137, 760)" opacity="0.96"></rect><rect width="59" height="3" x="635.5" y="664.5" rx="1.5" transform="rotate(45, 665, 666)" opacity="0.47"></rect><rect width="118" height="3" x="583" y="114.5" rx="1.5" transform="rotate(45, 642, 116)" opacity="0.77"></rect><rect width="182" height="3" x="319" y="299.5" rx="1.5" transform="rotate(45, 410, 301)" opacity="0.34"></rect><rect width="241" height="3" x="151.5" y="523.5" rx="1.5" transform="rotate(45, 272, 525)" opacity="0.55"></rect><rect width="376" height="3" x="-145" y="92.5" rx="1.5" transform="rotate(45, 43, 94)" opacity="0.70"></rect><rect width="53" height="3" x="740.5" y="441.5" rx="1.5" transform="rotate(45, 767, 443)" opacity="0.55"></rect><rect width="520" height="3" x="179" y="109.5" rx="1.5" transform="rotate(45, 439, 111)" opacity="0.16"></rect><rect width="398" height="3" x="-43" y="260.5" rx="1.5" transform="rotate(45, 156, 262)" opacity="0.93"></rect><rect width="646" height="3" x="277" y="203.5" rx="1.5" transform="rotate(45, 600, 205)" opacity="0.71"></rect><rect width="325" height="3" x="58.5" y="760.5" rx="1.5" transform="rotate(45, 221, 762)" opacity="0.22"></rect><rect width="474" height="3" x="307" y="356.5" rx="1.5" transform="rotate(45, 544, 358)" opacity="0.96"></rect><rect width="167" height="3" x="43.5" y="663.5" rx="1.5" transform="rotate(45, 127, 665)" opacity="0.24"></rect><rect width="175" height="3" x="685.5" y="101.5" rx="1.5" transform="rotate(45, 773, 103)" opacity="0.80"></rect><rect width="190" height="3" x="-72" y="567.5" rx="1.5" transform="rotate(45, 23, 569)" opacity="0.65"></rect><rect width="482" height="3" x="176" y="753.5" rx="1.5" transform="rotate(45, 417, 755)" opacity="0.37"></rect><rect width="652" height="3" x="-87" y="349.5" rx="1.5" transform="rotate(45, 239, 351)" opacity="0.91"></rect><rect width="99" height="3" x="300.5" y="572.5" rx="1.5" transform="rotate(45, 350, 574)" opacity="0.23"></rect><rect width="159" height="3" x="421.5" y="179.5" rx="1.5" transform="rotate(45, 501, 181)" opacity="0.36"></rect><rect width="452" height="3" x="179" y="510.5" rx="1.5" transform="rotate(45, 405, 512)" opacity="0.32"></rect><rect width="315" height="3" x="83.5" y="29.5" rx="1.5" transform="rotate(45, 241, 31)" opacity="0.60"></rect><rect width="361" height="3" x="-147.5" y="332.5" rx="1.5" transform="rotate(45, 33, 334)" opacity="0.11"></rect><rect width="331" height="3" x="-140.5" y="452.5" rx="1.5" transform="rotate(45, 25, 454)" opacity="0.78"></rect><rect width="304" height="3" x="143" y="714.5" rx="1.5" transform="rotate(45, 295, 716)" opacity="0.63"></rect><rect width="405" height="3" x="53.5" y="108.5" rx="1.5" transform="rotate(45, 256, 110)" opacity="0.30"></rect><rect width="129" height="3" x="-31.5" y="647.5" rx="1.5" transform="rotate(45, 33, 649)" opacity="0.42"></rect><rect width="199" height="3" x="357.5" y="665.5" rx="1.5" transform="rotate(45, 457, 667)" opacity="0.46"></rect><rect width="268" height="3" x="-57" y="234.5" rx="1.5" transform="rotate(45, 77, 236)" opacity="0.91"></rect><rect width="496" height="3" x="-97" y="554.5" rx="1.5" transform="rotate(45, 151, 556)" opacity="0.19"></rect><rect width="430" height="3" x="97" y="451.5" rx="1.5" transform="rotate(45, 312, 453)" opacity="0.72"></rect><rect width="145" height="3" x="-52.5" y="253.5" rx="1.5" transform="rotate(45, 20, 255)" opacity="0.64"></rect><rect width="378" height="3" x="442" y="525.5" rx="1.5" transform="rotate(45, 631, 527)" opacity="0.84"></rect><rect width="336" height="3" x="-83" y="31.5" rx="1.5" transform="rotate(45, 85, 33)" opacity="0.82"></rect><rect width="230" height="3" x="112" y="578.5" rx="1.5" transform="rotate(45, 227, 580)" opacity="1.00"></rect><rect width="256" height="3" x="621" y="352.5" rx="1.5" transform="rotate(45, 749, 354)" opacity="0.60"></rect><rect width="493" height="3" x="110.5" y="373.5" rx="1.5" transform="rotate(45, 357, 375)" opacity="0.91"></rect><rect width="87" height="3" x="649.5" y="449.5" rx="1.5" transform="rotate(45, 693, 451)" opacity="0.82"></rect><rect width="177" height="3" x="673.5" y="22.5" rx="1.5" transform="rotate(45, 762, 24)" opacity="0.67"></rect><rect width="71" height="3" x="451.5" y="524.5" rx="1.5" transform="rotate(45, 487, 526)" opacity="0.54"></rect><rect width="329" height="3" x="546.5" y="518.5" rx="1.5" transform="rotate(45, 711, 520)" opacity="0.61"></rect><rect width="469" height="3" x="-109.5" y="141.5" rx="1.5" transform="rotate(45, 125, 143)" opacity="0.50"></rect><rect width="110" height="3" x="557" y="430.5" rx="1.5" transform="rotate(45, 612, 432)" opacity="0.27"></rect><rect width="118" height="3" x="260" y="772.5" rx="1.5" transform="rotate(45, 319, 774)" opacity="0.52"></rect><rect width="474" height="3" x="-199" y="167.5" rx="1.5" transform="rotate(45, 38, 169)" opacity="0.10"></rect><rect width="181" height="3" x="307.5" y="35.5" rx="1.5" transform="rotate(45, 398, 37)" opacity="0.35"></rect><rect width="107" height="3" x="178.5" y="219.5" rx="1.5" transform="rotate(45, 232, 221)" opacity="0.70"></rect><rect width="299" height="3" x="-103.5" y="762.5" rx="1.5" transform="rotate(45, 46, 764)" opacity="0.15"></rect><rect width="404" height="3" x="-98" y="352.5" rx="1.5" transform="rotate(45, 104, 354)" opacity="0.63"></rect><rect width="380" height="3" x="124" y="251.5" rx="1.5" transform="rotate(45, 314, 253)" opacity="0.14"></rect><rect width="328" height="3" x="290" y="404.5" rx="1.5" transform="rotate(45, 454, 406)" opacity="0.16"></rect><rect width="529" height="3" x="272.5" y="635.5" rx="1.5" transform="rotate(45, 537, 637)" opacity="0.93"></rect><rect width="273" height="3" x="60.5" y="679.5" rx="1.5" transform="rotate(45, 197, 681)" opacity="0.63"></rect><rect width="228" height="3" x="469" y="572.5" rx="1.5" transform="rotate(45, 583, 574)" opacity="0.81"></rect><rect width="719" height="3" x="373.5" y="743.5" rx="1.5" transform="rotate(45, 733, 745)" opacity="0.31"></rect><rect width="434" height="3" x="459" y="277.5" rx="1.5" transform="rotate(45, 676, 279)" opacity="0.83"></rect><rect width="178" height="3" x="415" y="281.5" rx="1.5" transform="rotate(45, 504, 283)" opacity="0.29"></rect><rect width="169" height="3" x="665.5" y="276.5" rx="1.5" transform="rotate(45, 750, 278)" opacity="0.93"></rect><rect width="470" height="3" x="166" y="207.5" rx="1.5" transform="rotate(45, 401, 209)" opacity="0.79"></rect><rect width="736" height="3" x="-41" y="126.5" rx="1.5" transform="rotate(45, 327, 128)" opacity="0.93"></rect><rect width="128" height="3" x="479" y="452.5" rx="1.5" transform="rotate(45, 543, 454)" opacity="0.44"></rect><rect width="265" height="3" x="519.5" y="29.5" rx="1.5" transform="rotate(45, 652, 31)" opacity="0.95"></rect><rect width="147" height="3" x="695.5" y="211.5" rx="1.5" transform="rotate(45, 769, 213)" opacity="0.44"></rect><rect width="463" height="3" x="-150.5" y="580.5" rx="1.5" transform="rotate(45, 81, 582)" opacity="0.42"></rect><rect width="447" height="3" x="-76.5" y="430.5" rx="1.5" transform="rotate(45, 147, 432)" opacity="0.13"></rect><rect width="536" height="3" x="-3" y="639.5" rx="1.5" transform="rotate(45, 265, 641)" opacity="0.88"></rect><rect width="160" height="3" x="283" y="654.5" rx="1.5" transform="rotate(45, 363, 656)" opacity="0.47"></rect><rect width="421" height="3" x="-129.5" y="473.5" rx="1.5" transform="rotate(45, 81, 475)" opacity="0.71"></rect><rect width="288" height="3" x="403" y="60.5" rx="1.5" transform="rotate(45, 547, 62)" opacity="0.88"></rect><rect width="571" height="3" x="379.5" y="380.5" rx="1.5" transform="rotate(45, 665, 382)" opacity="0.32"></rect></g></svg>