<svg xmlns="http://www.w3.org/2000/svg" version="1.1"  viewBox="0 0 800 800"><g fill="none" stroke-width="3" stroke="hsl(335, 77%, 50%)" stroke-linecap="round"><line x1="580.5" y1="400" x2="219.5" y2="400" transform="rotate(0, 400, 400)" opacity="0.12"></line><line x1="203" y1="400" x2="597" y2="400" transform="rotate(4, 400, 400)" opacity="0.25"></line><line x1="557.5" y1="400" x2="242.5" y2="400" transform="rotate(8, 400, 400)" opacity="0.80"></line><line x1="670" y1="400" x2="130" y2="400" transform="rotate(12, 400, 400)" opacity="0.94"></line><line x1="330.5" y1="400" x2="469.5" y2="400" transform="rotate(16, 400, 400)" opacity="0.66"></line><line x1="261.5" y1="400" x2="538.5" y2="400" transform="rotate(20, 400, 400)" opacity="0.23"></line><line x1="431" y1="400" x2="369" y2="400" transform="rotate(24, 400, 400)" opacity="0.29"></line><line x1="491" y1="400" x2="309" y2="400" transform="rotate(28, 400, 400)" opacity="0.19"></line><line x1="656" y1="400" x2="144" y2="400" transform="rotate(32, 400, 400)" opacity="0.69"></line><line x1="25" y1="400" x2="775" y2="400" transform="rotate(36, 400, 400)" opacity="0.21"></line><line x1="372" y1="400" x2="428" y2="400" transform="rotate(40, 400, 400)" opacity="0.38"></line><line x1="139" y1="400" x2="661" y2="400" transform="rotate(44, 400, 400)" opacity="0.38"></line><line x1="363.5" y1="400" x2="436.5" y2="400" transform="rotate(48, 400, 400)" opacity="0.90"></line><line x1="512" y1="400" x2="288" y2="400" transform="rotate(52, 400, 400)" opacity="0.07"></line><line x1="621" y1="400" x2="179" y2="400" transform="rotate(56, 400, 400)" opacity="0.36"></line><line x1="148.5" y1="400" x2="651.5" y2="400" transform="rotate(60, 400, 400)" opacity="0.45"></line><line x1="236" y1="400" x2="564" y2="400" transform="rotate(64, 400, 400)" opacity="0.31"></line><line x1="510" y1="400" x2="290" y2="400" transform="rotate(68, 400, 400)" opacity="0.40"></line><line x1="499.5" y1="400" x2="300.5" y2="400" transform="rotate(72, 400, 400)" opacity="0.44"></line><line x1="128" y1="400" x2="672" y2="400" transform="rotate(76, 400, 400)" opacity="0.95"></line><line x1="250.5" y1="400" x2="549.5" y2="400" transform="rotate(80, 400, 400)" opacity="0.19"></line><line x1="422.5" y1="400" x2="377.5" y2="400" transform="rotate(84, 400, 400)" opacity="0.88"></line><line x1="420.5" y1="400" x2="379.5" y2="400" transform="rotate(88, 400, 400)" opacity="0.46"></line><line x1="49" y1="400" x2="751" y2="400" transform="rotate(92, 400, 400)" opacity="0.99"></line><line x1="180.5" y1="400" x2="619.5" y2="400" transform="rotate(96, 400, 400)" opacity="0.17"></line><line x1="335.5" y1="400" x2="464.5" y2="400" transform="rotate(100, 400, 400)" opacity="0.31"></line><line x1="456" y1="400" x2="344" y2="400" transform="rotate(104, 400, 400)" opacity="0.89"></line><line x1="113" y1="400" x2="687" y2="400" transform="rotate(108, 400, 400)" opacity="0.63"></line><line x1="117" y1="400" x2="683" y2="400" transform="rotate(112, 400, 400)" opacity="0.92"></line><line x1="432" y1="400" x2="368" y2="400" transform="rotate(116, 400, 400)" opacity="0.14"></line><line x1="363" y1="400" x2="437" y2="400" transform="rotate(120, 400, 400)" opacity="0.93"></line><line x1="448" y1="400" x2="352" y2="400" transform="rotate(124, 400, 400)" opacity="0.66"></line><line x1="520" y1="400" x2="280" y2="400" transform="rotate(128, 400, 400)" opacity="0.50"></line><line x1="64.5" y1="400" x2="735.5" y2="400" transform="rotate(132, 400, 400)" opacity="0.10"></line><line x1="104" y1="400" x2="696" y2="400" transform="rotate(136, 400, 400)" opacity="0.64"></line><line x1="457" y1="400" x2="343" y2="400" transform="rotate(140, 400, 400)" opacity="0.71"></line><line x1="119" y1="400" x2="681" y2="400" transform="rotate(144, 400, 400)" opacity="0.35"></line><line x1="635" y1="400" x2="165" y2="400" transform="rotate(148, 400, 400)" opacity="0.55"></line><line x1="106" y1="400" x2="694" y2="400" transform="rotate(152, 400, 400)" opacity="0.49"></line><line x1="99" y1="400" x2="701" y2="400" transform="rotate(156, 400, 400)" opacity="0.94"></line><line x1="429" y1="400" x2="371" y2="400" transform="rotate(160, 400, 400)" opacity="0.68"></line><line x1="125" y1="400" x2="675" y2="400" transform="rotate(164, 400, 400)" opacity="0.79"></line><line x1="651.5" y1="400" x2="148.5" y2="400" transform="rotate(168, 400, 400)" opacity="0.94"></line><line x1="309.5" y1="400" x2="490.5" y2="400" transform="rotate(172, 400, 400)" opacity="0.89"></line><line x1="576.5" y1="400" x2="223.5" y2="400" transform="rotate(176, 400, 400)" opacity="0.74"></line><line x1="501.5" y1="400" x2="298.5" y2="400" transform="rotate(180, 400, 400)" opacity="0.64"></line><line x1="494.5" y1="400" x2="305.5" y2="400" transform="rotate(184, 400, 400)" opacity="0.95"></line><line x1="668.5" y1="400" x2="131.5" y2="400" transform="rotate(188, 400, 400)" opacity="0.44"></line><line x1="480.5" y1="400" x2="319.5" y2="400" transform="rotate(192, 400, 400)" opacity="0.87"></line><line x1="719" y1="400" x2="81" y2="400" transform="rotate(196, 400, 400)" opacity="0.24"></line><line x1="438" y1="400" x2="362" y2="400" transform="rotate(200, 400, 400)" opacity="0.21"></line><line x1="293.5" y1="400" x2="506.5" y2="400" transform="rotate(204, 400, 400)" opacity="0.69"></line><line x1="101" y1="400" x2="699" y2="400" transform="rotate(208, 400, 400)" opacity="0.34"></line><line x1="451" y1="400" x2="349" y2="400" transform="rotate(212, 400, 400)" opacity="0.30"></line><line x1="418.5" y1="400" x2="381.5" y2="400" transform="rotate(216, 400, 400)" opacity="0.27"></line><line x1="298.5" y1="400" x2="501.5" y2="400" transform="rotate(220, 400, 400)" opacity="0.76"></line><line x1="328" y1="400" x2="472" y2="400" transform="rotate(224, 400, 400)" opacity="0.61"></line><line x1="545.5" y1="400" x2="254.5" y2="400" transform="rotate(228, 400, 400)" opacity="0.90"></line><line x1="729.5" y1="400" x2="70.5" y2="400" transform="rotate(232, 400, 400)" opacity="0.23"></line><line x1="421" y1="400" x2="379" y2="400" transform="rotate(236, 400, 400)" opacity="0.70"></line><line x1="103" y1="400" x2="697" y2="400" transform="rotate(240, 400, 400)" opacity="0.11"></line><line x1="483.5" y1="400" x2="316.5" y2="400" transform="rotate(244, 400, 400)" opacity="0.61"></line><line x1="482" y1="400" x2="318" y2="400" transform="rotate(248, 400, 400)" opacity="0.73"></line><line x1="197" y1="400" x2="603" y2="400" transform="rotate(252, 400, 400)" opacity="0.33"></line><line x1="236" y1="400" x2="564" y2="400" transform="rotate(256, 400, 400)" opacity="0.22"></line><line x1="336" y1="400" x2="464" y2="400" transform="rotate(260, 400, 400)" opacity="0.09"></line><line x1="216" y1="400" x2="584" y2="400" transform="rotate(264, 400, 400)" opacity="0.09"></line><line x1="227.5" y1="400" x2="572.5" y2="400" transform="rotate(268, 400, 400)" opacity="0.89"></line><line x1="599.5" y1="400" x2="200.5" y2="400" transform="rotate(272, 400, 400)" opacity="0.07"></line><line x1="119.5" y1="400" x2="680.5" y2="400" transform="rotate(276, 400, 400)" opacity="0.51"></line><line x1="629" y1="400" x2="171" y2="400" transform="rotate(280, 400, 400)" opacity="0.66"></line><line x1="585" y1="400" x2="215" y2="400" transform="rotate(284, 400, 400)" opacity="0.90"></line><line x1="256" y1="400" x2="544" y2="400" transform="rotate(288, 400, 400)" opacity="0.29"></line><line x1="118.5" y1="400" x2="681.5" y2="400" transform="rotate(292, 400, 400)" opacity="0.76"></line><line x1="734.5" y1="400" x2="65.5" y2="400" transform="rotate(296, 400, 400)" opacity="0.99"></line><line x1="41" y1="400" x2="759" y2="400" transform="rotate(300, 400, 400)" opacity="0.10"></line><line x1="480.5" y1="400" x2="319.5" y2="400" transform="rotate(304, 400, 400)" opacity="0.13"></line><line x1="679.5" y1="400" x2="120.5" y2="400" transform="rotate(308, 400, 400)" opacity="0.81"></line><line x1="511.5" y1="400" x2="288.5" y2="400" transform="rotate(312, 400, 400)" opacity="0.25"></line><line x1="398.5" y1="400" x2="401.5" y2="400" transform="rotate(316, 400, 400)" opacity="0.66"></line><line x1="527" y1="400" x2="273" y2="400" transform="rotate(320, 400, 400)" opacity="0.88"></line><line x1="220" y1="400" x2="580" y2="400" transform="rotate(324, 400, 400)" opacity="0.93"></line><line x1="447" y1="400" x2="353" y2="400" transform="rotate(328, 400, 400)" opacity="0.10"></line><line x1="667.5" y1="400" x2="132.5" y2="400" transform="rotate(332, 400, 400)" opacity="0.30"></line><line x1="55" y1="400" x2="745" y2="400" transform="rotate(336, 400, 400)" opacity="0.59"></line><line x1="647.5" y1="400" x2="152.5" y2="400" transform="rotate(340, 400, 400)" opacity="0.38"></line><line x1="332.5" y1="400" x2="467.5" y2="400" transform="rotate(344, 400, 400)" opacity="0.83"></line><line x1="89" y1="400" x2="711" y2="400" transform="rotate(348, 400, 400)" opacity="0.97"></line></g></svg>