<svg xmlns="http://www.w3.org/2000/svg" version="1.1" viewBox="0 0 800 800"><defs><linearGradient x1="50%" y1="0%" x2="50%" y2="100%" id="ccchaos-grad"><stop stop-color="hsl(206, 75%, 49%)" stop-opacity="1" offset="0%"></stop><stop stop-color="hsl(331, 90%, 56%)" stop-opacity="1" offset="100%"></stop></linearGradient></defs><g stroke-width="2" stroke="url(#ccchaos-grad)" fill="none" stroke-linecap="round"><path d="M380.27 99.72C389.68 99.96 399.08 101.19 408.45 103.35 417.84 105.94 427.23 109.35 436.62 113.48 446.04 117.84 455.49 122.75 464.97 128.12 474.53 133.48 484.16 139.14 493.85 145.02 503.66 150.69 513.57 156.48 523.58 162.32 533.72 167.84 543.98 173.39 554.3 178.94 564.75 184.13 575.25 189.35 585.73 194.6 596.25 199.54 606.66 204.57 616.86 209.73 626.94 214.64 636.66 219.75 645.89 225.08 654.75 230.25 662.94 235.71 670.29 241.47 677.04 247.16 682.78 253.19 687.37 259.56 691.19 265.91 693.76 272.64 695.04 279.72 695.53 286.8 694.76 294.25 692.79 302.05 690.26 309.85 686.74 317.99 682.38 326.44 677.93 334.89 673.01 343.65 667.82 352.7 663.12 361.74 658.57 371.06 654.35 380.64 651.14 390.23 648.6 399.86 646.77 409.53 646.1 419.2 646.08 428.93 646.64 438.71 648.14 448.52 649.97 458.41 651.96 468.37 654.48 478.41 656.82 488.55 658.84 498.78 660.9 509.12 662.34 519.57 663.03 530.1 663.4 540.74 662.84 551.44 661.31 562.16 659.26 572.92 656.19 583.62 652.13 594.19 647.51 604.65 641.96 614.84 635.56 624.62 628.69 634.09 621.09 642.98 612.85 651.14 604.29 658.74 595.22 665.42 585.75 671.04 576.1 675.91 566.16 679.59 556.01 682.02 545.79 683.66 535.44 684.06 525.03 683.25 514.61 681.84 504.17 679.44 493.75 676.16 483.35 672.76 472.99 668.86 462.7 664.69 452.44 661.01 442.24 657.49 432.13 654.34 422.04 652.26 412.02 650.86 402.1 650.27 392.18 651.01 382.57 652.55 373.27 654.77 363.95 658.03 354.93 661.64 346.2 665.39 337.43 669.61 328.93 673.52 320.71 676.92 312.43 680.17 304.4 682.53 296.62 683.87 288.75 684.6 281.11 684.1 273.69 682.36 266.15 679.82 258.8 676.02 251.65 671.04 244.35 665.31 237.22 658.53 230.26 650.84 223.14 642.6 216.18 633.64 209.38 624.1 202.42 614.27 195.63 604.04 189.04 593.55 182.31 582.96 175.79 572.25 169.52 561.49 163.18 550.78 157.12 540.08 151.39 529.47 145.67 518.96 140.32 508.53 135.41 498.22 130.57 488.01 126.22 477.9 122.4 467.89 118.74 457.96 115.64 448.09 113.16 438.29 110.89 428.54 109.25 418.83 108.27 409.17 107.52 399.52 107.44 389.89 108.04 380.31 108.83 370.73 110.26 361.41 112.28 352.37 114.42 343.32 117.09 334.56 120.24 326.09 123.41 317.63 127.01 309.48 130.98 301.67 134.89 293.87 139.12 286.41 143.63 279.32 148 272.23 152.62 265.5 157.46 259.14 162.11 252.77 166.96 246.74 172 241.06 176.84 235.31 181.88 229.87 187.1 224.71 192.14 219.41 197.39 214.33 202.86 209.45 208.18 204.34 213.75 199.35 219.57 194.46 225.29 189.25 231.3 184.08 237.58 178.94 243.81 173.45 250.35 167.95 257.18 162.48 263.99 156.68 271.12 150.93 278.53 145.29 285.95 139.44 293.66 133.79 301.65 128.44 309.64 123.07 317.9 118.15 326.42 113.77 334.93 109.61 343.69 106.16 352.67 103.52 361.65 101.31 370.85 100.02 380.26 99.72" stroke-dasharray="7 10" transform="rotate(0, 400, 400)" opacity="0.78"></path><path d="M382.81 110.31C391.92 110.53 401.04 111.71 410.18 113.77 419.34 116.26 428.52 119.53 437.73 123.5 446.98 127.71 456.27 132.47 465.62 137.68 475.03 142.92 484.53 148.48 494.09 154.26 503.75 159.89 513.5 165.65 523.32 171.49 533.25 177.04 543.25 182.64 553.28 188.25 563.39 193.53 573.49 198.84 583.51 204.18 593.52 209.21 603.36 214.32 612.93 219.52 622.33 224.48 631.32 229.6 639.79 234.9 647.87 240.03 655.26 245.4 661.83 251.03 667.81 256.56 672.82 262.4 676.75 268.54 679.96 274.64 682.03 281.08 682.91 287.85 683.09 294.61 682.14 301.71 680.1 309.14 677.6 316.56 674.22 324.32 670.08 332.4 665.9 340.47 661.3 348.86 656.46 357.55 652.08 366.23 647.82 375.21 643.84 384.48 640.79 393.75 638.31 403.11 636.46 412.52 635.66 421.95 635.44 431.46 635.74 441.04 636.91 450.66 638.38 460.36 640.03 470.15 642.19 480 644.22 489.96 646 499.99 647.88 510.09 649.23 520.29 649.93 530.53 650.42 540.82 650.08 551.14 648.88 561.42 647.25 571.67 644.7 581.81 641.23 591.74 637.29 601.52 632.46 610.96 626.82 619.95 620.75 628.59 613.96 636.62 606.53 643.89 598.78 650.62 590.5 656.45 581.8 661.26 572.89 665.38 563.65 668.4 554.16 670.26 544.58 671.42 534.82 671.47 524.94 670.44 515.04 668.93 505.08 666.54 495.1 663.39 485.12 660.19 475.15 656.57 465.22 652.73 455.32 649.38 445.45 646.19 435.65 643.34 425.87 641.47 416.15 640.22 406.51 639.68 396.87 640.37 387.52 641.75 378.47 643.74 369.4 646.71 360.61 649.99 352.09 653.41 343.53 657.3 335.23 660.94 327.19 664.15 319.08 667.28 311.21 669.63 303.57 671.09 295.84 672.05 288.31 671.92 280.99 670.66 273.56 668.7 266.3 665.58 259.22 661.35 252 656.44 244.95 650.51 238.05 643.69 231 636.33 224.11 628.22 217.38 619.51 210.51 610.47 203.81 600.98 197.29 591.16 190.67 581.2 184.27 571.04 178.11 560.77 171.89 550.49 165.96 540.17 160.36 529.88 154.78 519.65 149.57 509.47 144.79 499.38 140.1 489.37 135.88 479.44 132.18 469.61 128.65 459.84 125.66 450.15 123.28 440.55 121.1 430.99 119.55 421.5 118.64 412.08 117.95 402.68 117.91 393.33 118.54 384.07 119.37 374.8 120.81 365.82 122.83 357.14 124.96 348.46 127.61 340.07 130.72 331.99 133.87 323.91 137.43 316.14 141.35 308.71 145.22 301.28 149.4 294.17 153.86 287.42 158.19 280.64 162.76 274.21 167.53 268.11 172.14 261.97 176.94 256.15 181.92 250.63 186.7 245.02 191.67 239.66 196.81 234.56 201.78 229.29 206.94 224.21 212.29 219.28 217.5 214.12 222.93 209.06 228.59 204.08 234.15 198.79 239.95 193.53 246.02 188.3 252.02 182.74 258.3 177.19 264.85 171.68 271.37 165.88 278.18 160.16 285.27 154.56 292.35 148.79 299.71 143.25 307.34 138.02 314.96 132.8 322.86 128.03 331.01 123.79 339.16 119.79 347.56 116.48 356.2 113.94 364.83 111.83 373.7 110.59 382.8 110.31" stroke-dasharray="6 4" transform="rotate(4.04, 400, 400)" opacity="0.65"></path><path d="M386.04 120.9C394.85 121.11 403.71 122.23 412.6 124.2 421.51 126.57 430.48 129.7 439.48 133.51 448.53 137.56 457.64 142.15 466.8 147.2 476.03 152.3 485.33 157.73 494.69 163.4 504.14 168.95 513.65 174.66 523.21 180.47 532.85 186.04 542.51 191.66 552.17 197.31 561.86 202.66 571.48 208.05 580.98 213.46 590.42 218.59 599.63 223.78 608.53 229.04 617.23 234.06 625.48 239.21 633.17 244.51 640.49 249.64 647.11 254.96 652.91 260.51 658.17 265.94 662.5 271.64 665.82 277.61 668.5 283.52 670.12 289.73 670.64 296.24 670.58 302.73 669.48 309.53 667.42 316.66 664.97 323.76 661.73 331.19 657.83 338.93 653.92 346.67 649.63 354.71 645.12 363.07 641.05 371.42 637.08 380.08 633.33 389.04 630.43 398 628.03 407.07 626.17 416.22 625.25 425.38 624.85 434.64 624.91 443.99 625.77 453.36 626.92 462.83 628.22 472.38 630.04 481.98 631.77 491.66 633.29 501.41 634.96 511.2 636.19 521.05 636.87 530.9 637.4 540.77 637.22 550.61 636.28 560.35 635 570.03 632.88 579.53 629.93 588.76 626.58 597.81 622.4 606.47 617.46 614.63 612.13 622.44 606.1 629.61 599.44 636.03 592.48 641.93 584.98 646.95 577.03 651.01 568.88 654.46 560.35 656.87 551.54 658.23 542.62 659 533.48 658.77 524.19 657.57 514.85 656 505.4 653.66 495.9 650.67 486.4 647.68 476.86 644.35 467.33 640.84 457.81 637.81 448.31 634.93 438.85 632.36 429.41 630.7 420 629.59 410.66 629.1 401.31 629.72 392.24 630.96 383.43 632.74 374.61 635.42 366.05 638.39 357.73 641.49 349.39 645.06 341.27 648.42 333.39 651.42 325.46 654.4 317.73 656.72 310.22 658.24 302.62 659.38 295.21 659.54 287.98 658.69 280.65 657.24 273.48 654.73 266.47 651.19 259.35 647.03 252.36 641.91 245.53 635.92 238.58 629.41 231.77 622.16 225.11 614.29 218.35 606.06 211.74 597.34 205.33 588.25 198.84 578.98 192.56 569.44 186.52 559.74 180.45 549.99 174.67 540.14 169.21 530.27 163.79 520.41 158.74 510.57 154.1 500.79 149.57 491.05 145.5 481.38 141.93 471.8 138.53 462.26 135.67 452.8 133.39 443.44 131.32 434.12 129.85 424.87 129.01 415.71 128.38 406.58 128.39 397.52 129.05 388.56 129.9 379.61 131.34 370.95 133.35 362.61 135.47 354.25 138.09 346.2 141.17 338.47 144.28 330.73 147.79 323.3 151.65 316.2 155.47 309.07 159.6 302.27 163.99 295.79 168.27 289.28 172.79 283.07 177.51 277.18 182.06 271.22 186.81 265.54 191.73 260.13 196.46 254.6 201.37 249.3 206.45 244.21 211.35 238.94 216.43 233.83 221.69 228.85 226.8 223.63 232.12 218.49 237.64 213.41 243.05 208.05 248.69 202.71 254.57 197.4 260.37 191.8 266.43 186.22 272.74 180.7 279 174.92 285.54 169.25 292.34 163.72 299.12 158.06 306.16 152.64 313.48 147.55 320.77 142.49 328.34 137.88 336.16 133.8 343.97 129.96 352.04 126.79 360.35 124.36 368.66 122.34 377.22 121.17 386.03 120.9" stroke-dasharray="11 1" transform="rotate(8.08, 400, 400)" opacity="0.34"></path><path d="M389.83 131.48C398.35 131.68 406.94 132.74 415.57 134.62 424.23 136.87 432.95 139.86 441.73 143.5 450.53 147.38 459.41 151.8 468.35 156.67 477.33 161.61 486.39 166.89 495.49 172.44 504.65 177.89 513.86 183.52 523.08 189.27 532.35 194.82 541.61 200.45 550.82 206.12 560.02 211.52 569.11 216.97 578.03 222.44 586.85 227.65 595.41 232.91 603.61 238.24 611.58 243.33 619.09 248.53 626.03 253.86 632.59 259 638.47 264.31 643.56 269.81 648.14 275.19 651.85 280.79 654.61 286.63 656.81 292.39 658.03 298.43 658.27 304.74 657.99 311.01 656.8 317.57 654.73 324.43 652.36 331.26 649.29 338.41 645.62 345.85 641.98 353.28 638 361.02 633.82 369.06 630.05 377.1 626.34 385.45 622.83 394.1 620.07 402.76 617.74 411.53 615.88 420.39 614.88 429.26 614.31 438.24 614.15 447.31 614.73 456.39 615.57 465.57 616.55 474.82 618.03 484.09 619.46 493.44 620.72 502.82 622.17 512.22 623.24 521.63 623.85 531.02 624.38 540.38 624.3 549.66 623.55 558.8 622.54 567.83 620.78 576.64 618.28 585.14 615.43 593.42 611.83 601.28 607.52 608.62 602.87 615.6 597.54 621.94 591.61 627.54 585.39 632.66 578.64 636.94 571.42 640.32 564.01 643.15 556.2 645.04 548.08 645.97 539.84 646.41 531.34 645.96 522.65 644.66 513.9 643.07 505.01 640.81 496.03 638 487.02 635.24 477.95 632.2 468.86 629.01 459.77 626.29 450.66 623.71 441.57 621.41 432.48 619.94 423.41 618.95 414.38 618.51 405.35 619.08 396.55 620.19 388 621.77 379.44 624.18 371.11 626.84 363 629.63 354.86 632.88 346.94 635.96 339.22 638.74 331.45 641.55 323.87 643.79 316.48 645.35 309.02 646.6 301.72 646.99 294.59 646.48 287.37 645.47 280.3 643.5 273.37 640.58 266.34 637.11 259.45 632.73 252.71 627.53 245.85 621.84 239.14 615.42 232.58 608.37 225.93 600.97 219.45 593.05 213.16 584.71 206.81 576.17 200.67 567.32 194.78 558.26 188.87 549.09 183.25 539.79 177.96 530.42 172.71 521.03 167.82 511.61 163.35 502.21 158.99 492.83 155.07 483.49 151.65 474.22 148.4 464.98 145.67 455.81 143.5 446.73 141.54 437.68 140.16 428.71 139.38 419.85 138.83 411 138.88 402.23 139.56 393.59 140.42 384.94 141.87 376.59 143.85 368.56 145.95 360.52 148.53 352.79 151.56 345.36 154.62 337.92 158.08 330.78 161.88 323.96 165.64 317.1 169.71 310.54 174.03 304.29 178.25 297.99 182.71 291.96 187.36 286.22 191.87 280.39 196.56 274.81 201.42 269.46 206.11 263.99 210.96 258.71 215.97 253.6 220.82 248.31 225.83 243.15 231.01 238.1 236.04 232.82 241.26 227.6 246.67 222.44 251.95 217.01 257.46 211.62 263.17 206.26 268.8 200.63 274.67 195.05 280.78 189.54 286.82 183.81 293.12 178.21 299.67 172.77 306.17 167.24 312.95 161.97 319.97 157.02 326.97 152.14 334.24 147.7 341.75 143.79 349.25 140.12 357.02 137.09 365.03 134.78 373.03 132.86 381.3 131.74 389.82 131.48" stroke-dasharray="1 11" transform="rotate(12.12, 400, 400)" opacity="0.64"></path><path d="M394.02 142.07C402.25 142.26 410.56 143.26 418.93 145.03 427.31 147.17 435.77 150.01 444.28 153.48 452.82 157.18 461.43 161.42 470.08 166.1 478.78 170.87 487.53 175.98 496.31 181.37 505.12 186.7 513.96 192.23 522.78 197.9 531.62 203.41 540.41 209 549.11 214.66 557.77 220.09 566.29 225.57 574.58 231.08 582.75 236.36 590.63 241.69 598.12 247.07 605.37 252.23 612.15 257.49 618.35 262.84 624.19 268.02 629.36 273.34 633.78 278.82 637.75 284.16 640.89 289.7 643.15 295.46 644.92 301.12 645.81 307.02 645.8 313.17 645.37 319.26 644.11 325.63 642.07 332.27 639.79 338.87 636.89 345.76 633.47 352.94 630.09 360.1 626.41 367.55 622.54 375.31 619.06 383.05 615.61 391.09 612.32 399.44 609.71 407.79 607.46 416.25 605.61 424.8 604.53 433.36 603.82 442.02 603.47 450.76 603.79 459.51 604.33 468.34 605.02 477.22 606.18 486.12 607.31 495.06 608.3 504 609.52 512.93 610.42 521.85 610.93 530.69 611.42 539.48 611.37 548.15 610.75 556.63 609.94 564.98 608.47 573.06 606.34 580.8 603.93 588.3 600.83 595.36 597.07 601.89 593.01 608.06 588.33 613.61 583.07 618.45 577.55 622.84 571.5 626.45 564.99 629.22 558.29 631.51 551.18 632.95 543.74 633.53 536.17 633.7 528.33 633.08 520.25 631.73 512.12 630.16 503.8 628.02 495.35 625.4 486.88 622.88 478.31 620.12 469.67 617.24 461.03 614.82 452.35 612.53 443.64 610.47 434.95 609.19 426.23 608.32 417.53 607.92 408.83 608.44 400.33 609.42 392.05 610.82 383.75 612.97 375.66 615.35 367.76 617.84 359.84 620.78 352.11 623.58 344.56 626.12 336.97 628.75 329.54 630.88 322.28 632.42 314.96 633.75 307.79 634.31 300.77 634.08 293.66 633.44 286.7 631.92 279.87 629.55 272.96 626.7 266.17 623.01 259.53 618.53 252.79 613.62 246.2 607.99 239.76 601.74 233.25 595.15 226.91 588.03 220.76 580.47 214.57 572.68 208.6 564.55 202.87 556.16 197.15 547.65 191.71 538.96 186.6 530.15 181.54 521.29 176.84 512.36 172.54 503.42 168.36 494.47 164.61 485.53 161.35 476.64 158.25 467.76 155.65 458.93 153.61 450.18 151.76 441.45 150.47 432.8 149.77 424.24 149.27 415.7 149.36 407.25 150.06 398.91 150.94 390.57 152.38 382.53 154.33 374.79 156.4 367.05 158.94 359.6 161.91 352.44 164.92 345.27 168.31 338.39 172.03 331.8 175.73 325.17 179.72 318.81 183.97 312.74 188.12 306.6 192.51 300.72 197.09 295.07 201.55 289.35 206.18 283.83 210.97 278.51 215.61 273.06 220.41 267.78 225.36 262.64 230.15 257.32 235.1 252.11 240.2 246.99 245.16 241.65 250.29 236.37 255.6 231.14 260.79 225.67 266.17 220.23 271.75 214.84 277.23 209.23 282.94 203.66 288.86 198.19 294.71 192.55 300.8 187.04 307.13 181.72 313.41 176.34 319.93 171.23 326.7 166.45 333.44 161.76 340.43 157.5 347.67 153.77 354.88 150.27 362.36 147.39 370.08 145.2 377.8 143.37 385.77 142.31 394.01 142.07" stroke-dasharray="5 3" transform="rotate(16.16, 400, 400)" opacity="0.29"></path><path d="M398.45 152.66C406.39 152.83 414.41 153.78 422.49 155.45 430.58 157.47 438.74 160.16 446.96 163.45 455.19 166.97 463.49 171.01 471.82 175.49 480.17 180.07 488.57 185 496.96 190.21 505.38 195.4 513.79 200.8 522.15 206.36 530.51 211.79 538.78 217.33 546.92 222.94 555.01 228.37 562.91 233.85 570.55 239.38 578.06 244.7 585.24 250.08 592.03 255.5 598.57 260.72 604.63 266.02 610.13 271.41 615.28 276.62 619.8 281.96 623.6 287.43 627 292.77 629.63 298.28 631.46 303.96 632.86 309.55 633.46 315.35 633.26 321.37 632.7 327.33 631.41 333.53 629.43 339.98 627.26 346.38 624.55 353.05 621.36 359.99 618.25 366.9 614.86 374.1 611.29 381.56 608.08 389.02 604.89 396.77 601.82 404.8 599.35 412.83 597.19 420.97 595.35 429.18 594.21 437.41 593.38 445.71 592.85 454.08 592.93 462.46 593.22 470.89 593.63 479.35 594.48 487.81 595.32 496.29 596.05 504.73 597.02 513.15 597.73 521.5 598.11 529.75 598.52 537.92 598.48 545.94 597.93 553.72 597.26 561.36 596.01 568.7 594.17 575.66 592.11 582.4 589.43 588.68 586.15 594.42 582.63 599.84 578.52 604.64 573.86 608.77 568.98 612.5 563.59 615.5 557.74 617.73 551.72 619.56 545.29 620.62 538.51 620.91 531.6 620.88 524.4 620.16 516.95 618.79 509.42 617.28 501.69 615.28 493.8 612.87 485.87 610.59 477.81 608.11 469.65 605.54 461.49 603.4 453.25 601.38 444.96 599.56 436.67 598.45 428.34 597.69 419.98 597.33 411.63 597.8 403.44 598.67 395.44 599.89 387.43 601.8 379.59 603.91 371.92 606.11 364.23 608.75 356.7 611.27 349.33 613.57 341.93 616 334.67 618 327.55 619.49 320.39 620.84 313.36 621.52 306.46 621.5 299.5 621.16 292.66 620.03 285.95 618.13 279.17 615.83 272.51 612.75 266 608.95 259.41 604.74 252.96 599.87 246.66 594.38 240.32 588.57 234.14 582.23 228.16 575.44 222.15 568.42 216.36 561.03 210.82 553.35 205.3 545.53 200.06 537.48 195.14 529.28 190.29 521.01 185.79 512.64 181.68 504.2 177.69 495.75 174.12 487.27 171.02 478.8 168.09 470.34 165.64 461.91 163.71 453.53 161.98 445.16 160.79 436.86 160.16 428.64 159.72 420.43 159.86 412.3 160.57 404.28 161.45 396.25 162.88 388.51 164.79 381.06 166.83 373.6 169.32 366.41 172.21 359.51 175.16 352.58 178.47 345.92 182.11 339.53 185.73 333.1 189.64 326.91 193.79 320.97 197.88 314.97 202.19 309.19 206.69 303.63 211.08 297.97 215.65 292.49 220.37 287.18 224.96 281.75 229.7 276.44 234.58 271.27 239.31 265.92 244.2 260.66 249.23 255.48 254.13 250.1 259.19 244.77 264.4 239.49 269.5 234 274.78 228.56 280.23 223.17 285.59 217.59 291.15 212.08 296.91 206.68 302.6 201.14 308.51 195.76 314.63 190.58 320.71 185.37 327.01 180.44 333.55 175.85 340.04 171.35 346.78 167.29 353.76 163.73 360.72 160.41 367.92 157.68 375.37 155.61 382.8 153.89 390.49 152.89 398.44 152.66" stroke-dasharray="3 5" transform="rotate(20.200000000000003, 400, 400)" opacity="0.46"></path><path d="M402.94 163.25C410.58 163.4 418.3 164.29 426.07 165.87 433.85 167.77 441.69 170.3 449.58 173.4 457.47 176.74 465.41 180.57 473.37 184.84 481.35 189.22 489.34 193.95 497.3 198.97 505.27 203.99 513.21 209.23 521.06 214.65 528.89 219.97 536.61 225.42 544.17 230.96 551.64 236.35 558.91 241.81 565.89 247.33 572.73 252.66 579.23 258.05 585.32 263.49 591.17 268.75 596.55 274.09 601.38 279.49 605.9 284.74 609.81 290.1 613.05 295.56 617.02 303.64 620.83 320.41 620.66 329.18 620.02 335.03 618.73 341.08 616.82 347.36 614.78 353.59 612.26 360.07 609.31 366.78 606.46 373.47 603.35 380.41 600.07 387.6 597.12 394.78 594.18 402.23 591.31 409.94 588.99 417.65 586.91 425.44 585.1 433.3 583.91 441.16 582.98 449.08 582.3 457.04 582.17 465.01 582.21 473 582.37 480.99 582.94 488.97 583.5 496.93 583.98 504.82 584.7 512.68 585.21 520.44 585.45 528.05 585.74 535.58 585.66 542.91 585.14 549.98 584.55 556.9 583.46 563.5 581.85 569.71 578.91 578.46 570 593 564.08 598.54 557.38 602.92 541.45 607.73 532.4 608.18 526.14 608 519.56 607.22 512.71 605.88 505.79 604.46 498.65 602.61 491.31 600.42 483.93 598.39 476.4 596.18 468.74 593.9 461.07 592.04 453.28 590.27 445.42 588.68 437.56 587.72 429.62 587.06 421.64 586.75 413.65 587.17 405.8 587.93 398.09 588.99 390.38 590.67 382.81 592.52 375.39 594.45 367.94 596.79 360.63 599.04 353.46 601.11 346.26 603.32 339.19 605.17 332.24 606.58 325.25 607.91 318.38 608.66 311.63 608.8 304.83 608.68 298.15 607.88 291.58 606.38 284.96 604.55 278.46 602.02 272.1 598.81 265.68 595.25 259.4 591.06 253.28 586.29 247.12 581.22 241.13 575.63 235.34 569.59 229.55 563.33 223.97 556.68 218.64 549.71 213.34 542.6 208.32 535.23 203.61 527.67 198.97 520.03 194.69 512.25 190.78 504.37 186.99 496.46 183.62 488.49 180.69 480.5 177.92 472.5 175.62 464.5 173.82 456.54 172.21 448.57 171.11 440.65 170.55 432.79 170.18 424.94 170.35 417.15 171.07 409.45 171.96 401.75 173.37 394.31 175.24 387.13 177.23 379.94 179.65 373.01 182.47 366.34 185.34 359.64 188.57 353.18 192.11 346.96 195.64 340.7 199.46 334.66 203.52 328.83 207.52 322.95 211.74 317.25 216.15 311.74 220.46 306.13 224.95 300.68 229.59 295.38 234.12 289.95 238.79 284.63 243.6 279.42 248.28 274.05 253.1 268.76 258.06 263.53 262.89 258.13 267.87 252.78 273 247.49 278.01 242.01 283.19 236.59 288.54 231.23 293.79 225.72 299.22 220.3 304.84 215 310.38 209.6 316.12 204.37 322.06 199.35 327.95 194.33 334.06 189.59 340.37 185.2 346.65 180.92 353.16 177.06 359.89 173.69 366.6 170.55 373.54 167.97 380.71 166.03 387.87 164.4 395.28 163.46 402.93 163.25" stroke-dasharray="3 7" transform="rotate(24.24, 400, 400)" opacity="0.72"></path><path d="M407.31 173.83C414.65 173.98 422.05 174.81 429.49 176.28 436.94 178.06 444.43 180.44 451.95 183.36 459.47 186.5 467.03 190.12 474.57 194.17 482.13 198.33 489.67 202.85 497.17 207.65 504.66 212.48 512.08 217.54 519.39 222.79 526.67 227.98 533.8 233.3 540.75 238.74 547.6 244.05 554.23 249.45 560.55 254.91 566.73 260.23 572.56 265.6 577.98 271.03 583.18 276.31 587.91 281.65 592.12 287.06 596.05 292.33 599.4 297.68 602.14 303.13 605.46 311.2 608.4 327.82 608.02 336.45 607.33 342.2 606.06 348.13 604.25 354.25 602.35 360.33 600.02 366.61 597.32 373.11 594.71 379.58 591.87 386.27 588.88 393.19 586.18 400.1 583.47 407.24 580.8 414.62 578.62 421.99 576.63 429.42 574.86 436.89 573.64 444.37 572.62 451.88 571.81 459.4 571.5 466.92 571.33 474.44 571.25 481.92 571.55 489.39 571.85 496.8 572.09 504.11 572.57 511.38 572.87 518.52 572.94 525.47 573.11 532.34 572.95 538.98 572.42 545.34 571.37 554.5 566.85 570.6 563.3 577.33 559.02 583.14 547.86 591.43 541.05 593.82 533.63 595.19 516.81 594.68 507.56 593 501.23 591.69 494.66 590.02 487.87 588.06 481.05 586.27 474.04 584.34 466.88 582.34 459.7 580.72 452.39 579.19 444.97 577.81 437.55 577 430.03 576.44 422.43 576.16 414.83 576.54 407.33 577.2 399.94 578.1 392.55 579.57 385.27 581.18 378.11 582.86 370.93 584.92 363.87 586.9 356.92 588.72 349.95 590.71 343.08 592.39 336.33 593.7 329.54 594.97 322.86 595.75 316.28 595.99 309.67 596.05 303.17 595.5 296.78 594.34 290.35 592.9 284.03 590.83 277.85 588.15 271.63 585.18 265.55 581.61 259.63 577.49 253.69 573.12 247.92 568.23 242.34 562.91 236.78 557.37 231.43 551.44 226.33 545.18 221.27 538.78 216.48 532.1 212 525.2 207.6 518.21 203.54 511.04 199.85 503.76 196.27 496.42 193.1 488.99 190.35 481.51 187.75 474.02 185.61 466.49 183.94 458.97 182.45 451.44 181.45 443.93 180.96 436.45 180.65 428.98 180.85 421.55 181.58 414.18 182.47 406.82 183.84 399.68 185.67 392.78 187.61 385.87 189.96 379.18 192.69 372.72 195.48 366.24 198.61 359.97 202.04 353.91 205.47 347.81 209.18 341.9 213.13 336.18 217.04 330.39 221.16 324.77 225.46 319.3 229.69 313.75 234.09 308.33 238.64 303.03 243.09 297.61 247.68 292.29 252.41 287.06 257.02 281.68 261.77 276.38 266.65 271.14 271.41 265.75 276.32 260.41 281.35 255.13 286.29 249.7 291.38 244.33 296.61 239.04 301.76 233.64 307.07 228.33 312.55 223.16 317.95 217.93 323.54 212.87 329.31 208.05 335.03 203.23 340.95 198.71 347.06 194.53 353.13 190.47 359.41 186.82 365.9 183.64 372.37 180.68 379.05 178.26 385.95 176.44 392.84 174.91 399.96 174.03 407.3 173.83" stroke-dasharray="1 7" transform="rotate(28.28, 400, 400)" opacity="0.84"></path><path d="M411.39 184.42C418.41 184.55 425.47 185.32 432.56 186.7 439.65 188.35 446.77 190.57 453.9 193.31 461.03 196.25 468.16 199.66 475.27 203.47 482.37 207.41 489.44 211.69 496.43 216.27 503.41 220.89 510.29 225.74 517.05 230.79 523.75 235.81 530.29 240.98 536.62 246.27 542.85 251.47 548.84 256.77 554.52 262.15 560.06 267.41 565.24 272.73 570.02 278.11 574.61 283.37 578.74 288.69 582.38 294.07 587.2 302 593.68 318.11 595.26 326.34 595.89 334.57 594.05 351.61 591.74 360.47 589.99 366.4 587.85 372.5 585.39 378.78 583.02 385.04 580.44 391.49 577.71 398.13 575.26 404.76 572.77 411.59 570.3 418.62 568.26 425.64 566.36 432.7 564.64 439.77 563.39 446.84 562.31 453.91 561.39 460.97 560.91 468.02 560.55 475.03 560.26 481.99 560.33 488.91 560.39 495.76 560.39 502.47 560.64 509.13 560.73 515.64 560.64 521.94 560.53 531.13 558.8 547.91 557 555.3 554.69 561.99 547.74 572.72 543.09 576.62 537.83 579.61 525.12 582.51 517.77 582.47 509.96 581.76 492.77 578.27 483.5 575.8 477.22 574.24 470.73 572.57 464.07 570.84 457.39 569.47 450.56 568.16 443.59 566.97 436.62 566.29 429.52 565.82 422.33 565.57 415.13 565.91 407.99 566.47 400.95 567.24 393.9 568.51 386.93 569.89 380.05 571.33 373.17 573.12 366.37 574.85 359.67 576.44 352.95 578.2 346.32 579.7 339.79 580.88 333.23 582.07 326.77 582.83 320.4 583.13 314.01 583.3 307.72 582.94 301.54 582.05 295.33 580.94 289.23 579.26 283.26 577.04 277.27 574.57 271.42 571.55 265.73 568.03 260.03 564.28 254.5 560.05 249.17 555.39 243.86 550.54 238.76 545.31 233.91 539.73 229.11 534.02 224.58 528.02 220.34 521.78 216.19 515.44 212.37 508.91 208.89 502.22 205.54 495.48 202.57 488.62 200.01 481.68 197.59 474.71 195.6 467.68 194.07 460.62 192.7 453.56 191.8 446.48 191.37 439.41 191.12 432.34 191.35 425.28 192.08 418.26 192.97 411.24 194.31 404.41 196.08 397.79 197.96 391.16 200.23 384.72 202.87 378.47 205.56 372.21 208.58 366.12 211.89 360.21 215.22 354.27 218.81 348.49 222.63 342.86 226.43 337.18 230.43 331.63 234.62 326.22 238.74 320.72 243.04 315.34 247.48 310.05 251.84 304.67 256.34 299.36 260.97 294.14 265.51 288.79 270.17 283.51 274.96 278.29 279.64 272.94 284.46 267.64 289.4 262.42 294.25 257.07 299.24 251.79 304.36 246.62 309.41 241.34 314.6 236.19 319.94 231.19 325.22 226.14 330.66 221.29 336.26 216.67 341.82 212.09 347.55 207.79 353.46 203.83 359.33 200 365.4 196.56 371.65 193.58 377.88 190.81 384.3 188.55 390.93 186.85 397.54 185.43 404.36 184.6 411.38 184.42" stroke-dasharray="10 9" transform="rotate(32.32, 400, 400)" opacity="0.58"></path><path d="M415.02 195.01C421.7 195.13 428.41 195.84 435.13 197.12 441.85 198.65 448.57 200.71 455.28 203.26 461.98 206 468.67 209.19 475.31 212.76 481.94 216.46 488.51 220.5 494.98 224.83 501.43 229.22 507.76 233.84 513.94 238.67 520.06 243.49 526.01 248.47 531.73 253.59 537.35 258.64 542.72 263.8 547.78 269.05 552.7 274.21 557.28 279.45 561.47 284.74 565.48 289.94 569.07 295.2 572.19 300.52 576.31 308.38 581.7 324.33 582.92 332.45 583.32 340.57 581.43 357.28 579.28 365.91 577.68 371.67 575.74 377.59 573.51 383.64 571.38 389.68 569.05 395.88 566.58 402.23 564.35 408.58 562.07 415.09 559.79 421.75 557.89 428.42 556.09 435.08 554.41 441.73 553.16 448.38 552.03 455 551.02 461.57 550.41 468.14 549.88 474.64 549.41 481.04 549.25 487.42 549.09 493.69 548.89 499.8 548.85 508.8 548.21 525.62 547.39 533.28 546.33 540.44 542.48 552.67 539.6 557.61 531.8 564.65 516.02 569.73 509.4 569.57 502.36 568.89 486.74 565.78 478.26 563.63 472.49 562.31 466.51 560.89 460.35 559.41 454.16 558.26 447.8 557.16 441.29 556.15 434.77 555.59 428.12 555.2 421.33 554.98 414.55 555.28 407.8 555.76 401.12 556.4 394.43 557.49 387.79 558.66 381.23 559.87 374.66 561.41 368.16 562.88 361.73 564.24 355.29 565.78 348.93 567.09 342.65 568.14 336.36 569.21 330.14 569.92 324.02 570.24 317.88 570.48 311.83 570.25 305.89 569.56 299.93 568.71 294.08 567.36 288.36 565.51 282.63 563.48 277.04 560.95 271.6 557.95 266.18 554.76 260.92 551.12 255.85 547.07 250.82 542.86 246 538.27 241.41 533.35 236.89 528.3 232.62 522.95 228.64 517.35 224.75 511.66 221.17 505.75 217.93 499.66 214.81 493.53 212.05 487.24 209.67 480.84 207.44 474.42 205.61 467.9 204.21 461.33 202.96 454.75 202.15 448.12 201.8 441.47 201.6 434.82 201.86 428.15 202.59 421.49 203.46 414.83 204.77 408.32 206.48 401.98 208.29 395.64 210.47 389.45 213 383.43 215.59 377.38 218.49 371.49 221.68 365.74 224.88 359.96 228.34 354.31 232.03 348.8 235.7 343.23 239.57 337.77 243.63 332.42 247.63 327 251.8 321.67 256.13 316.43 260.38 311.1 264.77 305.85 269.29 300.66 273.73 295.37 278.29 290.14 282.97 284.98 287.56 279.71 292.28 274.5 297.12 269.37 301.87 264.14 306.75 259 311.75 253.96 316.69 248.86 321.76 243.89 326.96 239.08 332.1 234.26 337.39 229.63 342.82 225.24 348.22 220.9 353.76 216.84 359.47 213.12 365.14 209.52 370.98 206.31 376.99 203.53 382.98 200.94 389.14 198.84 395.48 197.26 401.81 195.94 408.32 195.18 415.01 195.01" stroke-dasharray="8 2" transform="rotate(36.36, 400, 400)" opacity="0.57"></path><path d="M418.05 205.6C424.38 205.7 430.72 206.36 437.05 207.54 443.37 208.95 449.68 210.85 455.95 213.21 468.48 218.47 480.82 225.3 492.73 233.35 504.52 241.66 515.73 250.87 526.07 260.7 536.05 270.39 544.91 280.52 552.35 290.93 559.18 301.02 564.36 311.4 567.7 322 570.33 332.31 571.12 342.95 570.07 353.9 568.65 364.68 565.78 375.91 561.69 387.57 559.79 393.38 557.7 399.31 555.47 405.36 553.46 411.41 551.38 417.59 549.29 423.88 547.51 430.17 545.81 436.44 544.2 442.65 542.95 448.86 541.79 455.02 540.72 461.1 539.59 473.23 538.61 484.96 537.58 496.06 537.4 506.94 536.67 516.98 535.16 525.88 533.86 534.34 531.4 541.42 527.67 546.9 523.75 551.77 518.42 554.93 511.75 556.32 504.81 557.28 496.58 556.72 487.22 554.82 477.67 553.17 467.13 550.8 455.77 548.04 450.07 547.1 444.18 546.19 438.13 545.35 432.06 544.9 425.85 544.58 419.49 544.4 413.13 544.66 406.79 545.06 400.47 545.59 394.16 546.5 387.89 547.48 381.66 548.48 369.2 551.34 356.92 553.79 344.94 555.48 332.93 557.4 321.19 557.94 309.86 556.94 298.52 555.5 287.61 552.26 277.29 547.32 267.05 541.76 257.5 534.59 248.85 526.05 240.45 517.08 233.08 506.97 226.97 496.04 221.31 484.9 217.05 473.13 214.36 460.98 213.24 454.88 212.52 448.72 212.23 442.5 212.09 436.28 212.37 430.02 213.1 423.72 213.95 417.43 215.21 411.26 216.85 405.22 218.59 399.17 220.68 393.25 223.1 387.46 228.1 375.82 234.25 364.63 241.32 353.89 248.35 342.98 256.15 332.38 264.56 322.13 272.74 311.59 281.48 301.26 290.66 291.22 299.55 280.85 308.93 270.76 318.72 261.11 328.28 251.29 338.35 242.08 348.9 233.76 359.3 225.68 370.28 218.8 381.8 213.47 387.54 211.08 393.44 209.13 399.48 207.68 405.51 206.45 411.7 205.75 418.04 205.6" stroke-dasharray="6 8" transform="rotate(40.400000000000006, 400, 400)" opacity="0.23"></path><path d="M420.36 216.18C432.3 216.6 444.17 219.01 455.81 223.17 467.44 228.01 478.78 234.34 489.63 241.84 500.35 249.63 510.44 258.32 519.63 267.64 528.5 276.91 536.28 286.65 542.71 296.7 548.62 306.52 553.02 316.63 555.77 326.94 557.95 337.03 558.51 347.41 557.47 358.02 556.17 368.5 553.59 379.34 549.94 390.48 546.68 401.59 542.88 413.08 538.78 424.9 535.8 436.72 533 448.29 530.46 459.48 529.11 470.62 527.83 481.27 526.48 491.22 525.91 500.98 524.86 509.86 523.17 517.62 520.51 528.05 509.75 541.19 501.29 543.6 495.04 544.41 487.62 543.93 479.13 542.3 470.49 540.98 460.88 539.04 450.45 536.75 439.95 535.54 428.72 534.51 416.87 533.81 405.02 534.66 393.15 535.83 381.41 537.16 369.68 539.55 358.07 541.57 346.71 542.94 335.36 544.59 324.25 545.07 313.52 544.24 302.82 543.11 292.53 540.42 282.82 536.21 273.23 531.52 264.31 525.35 256.25 517.9 248.46 510.06 241.65 501.12 236.03 491.32 230.83 481.32 226.95 470.64 224.54 459.47 222.66 448.26 222.31 436.67 223.6 424.86 225.38 413.04 228.64 401.56 233.16 390.48 237.92 379.35 243.77 368.55 250.5 358.11 257.23 347.53 264.72 337.2 272.79 327.16 280.69 316.89 289.14 306.82 298.01 297.04 306.66 287.03 315.75 277.32 325.23 268.07 334.52 258.75 344.26 250.06 354.42 242.25 364.45 234.71 374.98 228.33 385.98 223.42 396.93 219.19 408.4 216.7 420.34 216.18" stroke-dasharray="1 3" transform="rotate(44.44, 400, 400)" opacity="0.48"></path><path d="M421.85 226.77C433.04 227.14 444.07 229.33 454.8 233.13 465.5 237.56 475.85 243.38 485.65 250.31 495.33 257.55 504.34 265.67 512.46 274.44 520.29 283.22 527.07 292.49 532.6 302.09 537.7 311.54 541.44 321.29 543.69 331.23 545.52 341.01 545.92 351.04 544.92 361.25 543.76 371.36 541.48 381.74 538.24 392.34 535.39 402.9 532 413.74 528.28 424.76 525.51 435.79 522.81 446.48 520.26 456.7 518.73 466.86 517.2 476.47 515.58 485.34 514.66 494.03 513.33 501.85 511.44 508.59 508.62 517.65 498.42 528.85 490.68 530.86 485.03 531.61 478.31 531.24 470.61 529.91 462.79 528.92 454.05 527.38 444.5 525.52 434.9 524.62 424.55 523.82 413.57 523.22 402.6 523.96 391.54 524.89 380.56 525.9 369.6 527.86 358.72 529.47 348.05 530.52 337.4 531.89 326.97 532.26 316.91 531.51 306.9 530.59 297.29 528.32 288.25 524.71 279.34 520.75 271.08 515.45 263.64 508.96 256.47 502.16 250.23 494.29 245.11 485.55 240.38 476.64 236.87 467 234.73 456.81 233.07 446.57 232.83 435.87 234.11 424.84 235.83 413.81 238.92 402.98 243.19 392.44 247.69 381.86 253.22 371.51 259.59 361.43 265.98 351.25 273.11 341.26 280.81 331.52 288.39 321.61 296.5 311.9 305.02 302.48 313.36 292.9 322.13 283.65 331.25 274.88 340.22 266.11 349.59 257.98 359.32 250.71 368.95 243.74 379.01 237.87 389.44 233.37 399.84 229.5 410.66 227.23 421.85 226.77" stroke-dasharray="11 5" transform="rotate(48.48, 400, 400)" opacity="0.71"></path><path d="M422.48 237.36C432.88 237.68 443.05 239.66 452.86 243.11 462.64 247.13 472.01 252.43 480.8 258.79 489.47 265.45 497.46 272.97 504.58 281.13 511.46 289.35 517.34 298.08 522.08 307.15 526.47 316.15 529.64 325.45 531.5 334.93 533.04 344.3 533.34 353.9 532.42 363.63 531.43 373.29 529.45 383.16 526.61 393.15 524.13 403.12 521.13 413.26 517.77 423.48 515.21 433.7 512.63 443.5 510.11 452.77 508.44 462 506.72 470.61 504.88 478.47 503.66 486.19 502.07 493.05 500 498.89 497 506.76 487.19 516.4 480.05 518.16 474.9 518.9 468.8 518.69 461.8 517.66 454.72 516.98 446.78 515.83 438.07 514.36 429.32 513.74 419.84 513.14 409.74 512.63 399.64 513.26 389.42 513.99 379.24 514.72 369.08 516.28 358.97 517.5 349.04 518.24 339.15 519.31 329.46 519.53 320.11 518.8 310.84 518 301.96 516.04 293.61 512.92 285.42 509.55 277.84 504.99 271.05 499.34 264.51 493.45 258.84 486.55 254.22 478.79 249.96 470.89 246.83 462.24 244.95 453 243.51 443.71 243.36 433.89 244.61 423.67 246.27 413.45 249.18 403.31 253.18 393.35 257.4 383.38 262.6 373.53 268.58 363.9 274.62 354.19 281.35 344.62 288.64 335.28 295.85 325.82 303.57 316.55 311.69 307.58 319.68 298.52 328.07 289.8 336.78 281.58 345.37 273.41 354.32 265.87 363.58 259.17 372.76 252.78 382.29 247.42 392.12 243.34 401.93 239.82 412.07 237.77 422.48 237.36" stroke-dasharray="10 7" transform="rotate(52.52, 400, 400)" opacity="0.61"></path><path d="M422.21 247.95C431.8 248.23 441.11 250 450.01 253.1 458.88 256.71 467.29 261.5 475.11 267.27 482.83 273.33 489.87 280.22 496.08 287.73 502.08 295.35 507.17 303.47 511.22 311.94 515 320.39 517.7 329.14 519.25 338.08 520.58 346.96 520.83 356.03 520.02 365.21 519.19 374.34 517.5 383.62 515.05 392.96 512.91 402.29 510.28 411.71 507.26 421.11 504.92 430.51 502.47 439.44 500 447.8 498.25 456.12 496.38 463.81 494.37 470.75 492.01 480.58 485.7 495.51 481.24 500.34 476.18 503.93 462.02 506.31 452.87 505.57 446.45 505.19 439.25 504.38 431.33 503.27 423.38 502.89 414.75 502.47 405.52 502.05 396.28 502.58 386.92 503.12 377.56 503.6 368.23 504.79 358.92 505.67 349.78 506.11 340.69 506.88 331.78 506.94 323.2 506.18 314.71 505.43 306.58 503.69 298.97 500.94 291.51 498.04 284.64 494.09 278.5 489.16 272.6 484.05 267.51 478.01 263.39 471.15 259.59 464.18 256.82 456.46 255.2 448.13 253.96 439.75 253.9 430.81 255.12 421.41 256.69 412 259.42 402.58 263.14 393.27 267.08 383.94 271.91 374.67 277.48 365.56 283.13 356.4 289.44 347.34 296.27 338.49 303.07 329.57 310.36 320.83 318.02 312.39 325.6 303.93 333.55 295.81 341.79 288.18 349.95 280.66 358.43 273.74 367.16 267.64 375.84 261.83 384.81 256.99 394 253.32 403.18 250.15 412.61 248.3 422.21 247.95" stroke-dasharray="1 0" transform="rotate(56.56, 400, 400)" opacity="0.62"></path><path d="M421.05 258.53C429.82 258.77 438.26 260.34 446.26 263.1 454.24 266.31 461.74 270.59 468.65 275.77 475.47 281.23 481.63 287.47 487.01 294.3 492.24 301.25 496.63 308.71 500.09 316.52 503.35 324.35 505.66 332.48 506.97 340.79 508.14 349.08 508.38 357.55 507.7 366.09 507.05 374.62 505.64 383.25 503.54 391.89 501.73 400.53 499.45 409.18 496.76 417.76 494.63 426.34 492.33 434.41 489.94 441.9 488.14 449.36 486.18 456.19 484.06 462.3 481.42 470.96 474.75 484.01 470.33 488.25 465.45 491.5 452.31 493.99 443.97 493.64 438.15 493.53 431.62 493.04 424.46 492.25 417.26 492.07 409.45 491.8 401.07 491.46 392.7 491.91 384.19 492.28 375.68 492.54 367.19 493.42 358.72 493.98 350.41 494.14 342.14 494.63 334.05 494.5 326.27 493.68 318.58 492.92 311.23 491.32 304.38 488.87 297.67 486.33 291.51 482.88 286.03 478.56 280.77 474.12 276.25 468.83 272.62 462.78 269.27 456.64 266.85 449.79 265.48 442.31 264.43 434.81 264.45 426.73 265.63 418.15 267.11 409.57 269.64 400.91 273.08 392.28 276.71 383.65 281.17 375.03 286.31 366.51 291.54 357.97 297.39 349.52 303.73 341.24 310.08 332.94 316.88 324.82 324.04 316.99 331.14 309.18 338.6 301.72 346.32 294.75 353.99 287.89 361.94 281.63 370.09 276.13 378.21 270.91 386.57 266.57 395.08 263.31 403.59 260.48 412.28 258.84 421.05 258.53" stroke-dasharray="10 11" transform="rotate(60.599999999999994, 400, 400)" opacity="0.99"></path><path d="M419.05 269.12C426.99 269.32 434.57 270.69 441.7 273.13 448.81 275.94 455.44 279.72 461.5 284.31 467.48 289.16 472.85 294.73 477.5 300.86 482.03 307.13 485.81 313.87 488.77 320.96 491.59 328.1 493.59 335.54 494.73 343.15 495.78 350.77 496.03 358.56 495.5 366.41 495.01 374.26 493.87 382.18 492.1 390.07 490.59 397.97 488.62 405.85 486.25 413.6 484.33 421.34 482.19 428.58 479.92 435.25 477.12 444.92 471.11 460.94 467.66 467.1 464.2 472.42 455.11 479.2 449.27 480.78 442.87 481.88 427.03 481.91 417.63 481.29 411.15 481.29 404.12 481.15 396.59 480.87 389.05 481.24 381.4 481.47 373.74 481.55 366.11 482.14 358.5 482.43 351.03 482.35 343.61 482.57 336.36 482.26 329.39 481.36 322.52 480.56 315.98 479.04 309.89 476.81 303.93 474.54 298.48 471.49 293.66 467.68 289.03 463.81 285.08 459.17 281.92 453.84 279 448.45 276.93 442.39 275.79 435.73 274.92 429.05 275.01 421.8 276.13 414.05 277.52 406.29 279.84 398.41 282.98 390.52 286.3 382.63 290.37 374.71 295.07 366.87 299.85 359.03 305.21 351.25 311.04 343.63 316.88 336.02 323.16 328.58 329.76 321.44 336.34 314.34 343.25 307.58 350.39 301.3 357.51 295.14 364.87 289.55 372.39 284.65 379.9 280.02 387.6 276.19 395.4 273.32 403.2 270.83 411.11 269.39 419.05 269.12" stroke-dasharray="7 0" transform="rotate(64.64, 400, 400)" opacity="0.52"></path><path d="M416.3 279.71C423.4 279.87 430.13 281.06 436.42 283.17 442.69 285.6 448.5 288.89 453.77 292.91 458.98 297.15 463.62 302.05 467.63 307.46 471.54 313.01 474.8 319.01 477.34 325.35 479.79 331.74 481.53 338.43 482.54 345.28 483.51 352.16 483.8 359.2 483.41 366.3 483.08 373.4 482.18 380.56 480.73 387.67 479.49 394.79 477.82 401.87 475.74 408.79 474.03 415.71 472.07 422.15 469.93 428.05 467.17 436.59 461.07 450.67 457.57 456.1 449.63 463.96 433.82 469.98 426.89 470.32 419.45 470.66 402.08 470.52 392.24 470.28 385.53 470.58 378.72 470.7 371.92 470.63 365.14 470.98 358.39 471.03 351.78 470.74 345.21 470.72 338.81 470.23 332.68 469.25 323.75 467.66 307.98 461.43 301.42 456.69 295.71 451.25 287.93 437.13 286.13 428.58 285.43 422.67 285.58 416.23 286.64 409.3 287.92 402.37 290.03 395.29 292.87 388.17 295.86 381.06 299.53 373.9 303.76 366.8 308.08 359.7 312.93 352.66 318.21 345.78 323.51 338.92 329.22 332.23 335.23 325.82 341.24 319.48 347.54 313.46 354.05 307.88 360.56 302.44 367.28 297.51 374.13 293.23 380.98 289.17 387.97 285.83 395.02 283.35 402.07 281.18 409.2 279.93 416.3 279.71" stroke-dasharray="2 8" transform="rotate(68.68, 400, 400)" opacity="0.23"></path><path d="M412.89 290.3C425.42 290.85 436.46 294.88 445.59 301.57 454.56 309.05 461.44 318.74 465.87 329.75 470.11 341.04 471.99 353.37 471.45 365.93 471.18 378.57 469.07 391.36 465.24 403.58 462.51 415.79 458.74 426.19 454.24 434.46 450.73 442.67 446.04 448.74 440.19 452.55 434.73 456.51 427.64 458.59 418.98 458.94 410.36 460.19 400 460.42 388.2 459.7 376.39 460.57 364.34 460.46 352.78 459.32 341.38 459.06 330.69 457.03 321.44 453.11 312.59 449.32 305.48 443.25 300.78 435.04 296.76 426.75 295.37 416.34 297.14 404.11 299.64 391.89 304.98 379.09 312.41 366.45 320.16 353.87 329.75 341.53 340.48 330.21 351.27 319.16 363.1 309.42 375.36 301.87 387.64 295.09 400.37 290.96 412.89 290.3" stroke-dasharray="8 7" transform="rotate(72.72, 400, 400)" opacity="0.56"></path><path d="M408.97 300.88C419.83 301.31 429.32 304.68 437.1 310.32 444.78 316.6 450.65 324.83 454.45 334.26 458.16 343.96 459.91 354.6 459.63 365.5 459.6 376.48 457.96 387.6 454.73 398.2 452.34 408.8 448.87 417.82 444.65 425.02 441.17 432.19 436.63 437.6 431.11 441.14 425.93 444.87 419.41 447.05 411.66 447.76 403.96 449.19 394.86 449.65 384.62 449.11 374.38 449.78 364.02 449.43 354.16 448.09 344.43 447.47 335.36 445.35 327.58 441.66 320.14 438.15 314.21 432.75 310.37 425.58 307.05 418.37 306 409.35 307.65 398.74 309.87 388.13 314.53 377 321.01 366.01 327.77 355.1 336.16 344.43 345.55 334.69 355.04 325.23 365.45 316.94 376.2 310.59 386.99 304.87 398.11 301.41 408.97 300.88" stroke-dasharray="6 3" transform="rotate(76.76, 400, 400)" opacity="0.26"></path><path d="M404.7 311.47C413.91 311.79 421.92 314.53 428.45 319.17 434.93 324.3 439.89 331.1 443.15 338.95 446.38 347.03 448.01 355.98 447.95 365.18 448.12 374.46 446.88 383.89 444.23 392.91 442.16 401.92 439.06 409.62 435.21 415.83 431.89 422.05 427.62 426.84 422.54 430.12 417.73 433.6 411.84 435.81 405.01 436.77 398.24 438.29 390.38 438.91 381.67 438.52 372.95 439.01 364.24 438.5 356.02 437.06 347.9 436.17 340.4 434.02 334.04 430.59 327.93 427.33 323.12 422.56 320.07 416.36 317.42 410.15 316.66 402.45 318.15 393.43 320.09 384.4 324.07 374.96 329.59 365.66 335.34 356.44 342.49 347.47 350.51 339.35 358.64 331.46 367.55 324.61 376.75 319.4 385.99 314.69 395.48 311.87 404.7 311.47" stroke-dasharray="9 9" transform="rotate(80.80000000000001, 400, 400)" opacity="0.61"></path><path d="M400.23 322.06C407.83 322.28 414.41 324.43 419.79 328.12 425.14 332.17 429.27 337.59 432.03 343.9 434.8 350.41 436.3 357.65 436.42 365.16 436.73 372.74 435.85 380.48 433.72 387.94 432 395.39 429.3 401.83 425.91 407.09 420.95 414.46 407.56 423.8 399.11 425.99 393.28 427.5 386.66 428.19 379.44 427.93 372.22 428.28 365.1 427.67 358.46 426.23 348.88 424.13 334.11 414.91 329.9 407.56 327.85 402.31 327.34 395.88 328.66 388.42 330.29 380.95 333.59 373.2 338.15 365.6 342.89 358.07 348.79 350.8 355.42 344.26 362.13 337.91 369.52 332.44 377.13 328.33 384.78 324.58 392.63 322.35 400.23 322.06" stroke-dasharray="4 5" transform="rotate(84.84, 400, 400)" opacity="0.88"></path><path d="M395.76 332.65C407.78 333.25 416.6 339.66 421.17 349.2 425.83 359.27 426.71 371.68 423.21 383.53 420.73 395.38 414.79 404.31 406.94 409.5 399.6 415.16 389.54 418.03 378.03 417.35 366.51 418.17 355.76 415.41 348.05 409.83 340.78 404.7 337.15 395.8 339.17 383.94 342 372.08 349.93 359.63 360.31 349.49 370.99 339.88 383.72 333.37 395.76 332.65" stroke-dasharray="0 8" transform="rotate(88.88, 400, 400)" opacity="0.70"></path><path d="M391.45 343.23C400.37 343.57 407.02 348.07 410.6 354.9 414.28 362.05 415.18 371.05 412.71 379.89 410.79 388.72 406.07 395.67 399.87 399.99 393.95 404.61 386.12 407.13 377.5 406.76 368.87 407.23 361.09 404.8 355.67 400.24 350.5 395.98 348.03 389.05 349.67 380.21 351.79 371.37 357.63 362.34 365.28 355.13 373.12 348.25 382.52 343.66 391.45 343.23" stroke-dasharray="3 4" transform="rotate(92.92, 400, 400)" opacity="0.73"></path><path d="M387.49 353.82C399.27 354.44 405.54 365.43 402.2 377.17 399.83 388.91 389.37 396.83 377.86 396.17 366.35 396.97 358.05 389.14 360.18 377.4 363.18 365.65 375.69 354.57 387.49 353.82" stroke-dasharray="7 11" transform="rotate(96.96, 400, 400)" opacity="0.08"></path></g></svg>